<svg xmlns="http://www.w3.org/2000/svg" viewBox="0 0 334 479"><path fill="#050609" fill-rule="evenodd" d="M157,0L177,0L177,1L197,2L197,3L203,3L203,4L209,4L209,5L213,5L213,6L218,6L218,7L221,7L221,8L225,8L225,9L228,9L228,10L237,12L237,13L242,14L242,15L244,15L244,16L247,16L248,18L253,19L254,21L256,21L256,22L260,23L261,25L265,26L267,29L269,29L271,32L273,32L276,36L278,36L278,37L290,48L290,50L295,54L295,56L297,57L297,59L300,61L300,63L302,64L303,68L305,69L305,71L306,71L306,73L307,73L307,75L308,75L308,77L309,77L309,79L310,79L310,81L311,81L311,83L312,83L312,85L313,85L313,88L314,88L314,90L315,90L315,92L316,92L316,95L317,95L317,98L318,98L318,101L319,101L319,104L320,104L320,107L321,107L321,110L322,110L322,114L323,114L324,121L325,121L325,126L326,126L326,131L327,131L327,135L328,135L329,147L330,147L331,164L332,164L332,175L333,175L333,191L334,191L334,224L333,224L332,248L331,248L331,261L330,261L330,273L329,273L328,290L327,290L327,296L326,296L326,304L325,304L325,309L324,309L324,314L323,314L323,319L322,319L322,323L321,323L321,328L320,328L320,331L319,331L319,335L318,335L318,338L317,338L317,341L316,341L316,344L315,344L313,353L312,353L312,355L311,355L311,357L310,357L310,360L309,360L309,362L308,362L308,364L307,364L307,366L306,366L304,372L302,373L301,377L299,378L299,380L297,381L297,383L295,384L295,386L291,389L291,391L287,394L287,396L281,401L281,403L276,407L276,409L271,413L271,415L265,420L265,422L260,426L260,428L259,428L259,429L252,435L252,437L250,437L250,439L249,439L243,446L241,446L235,453L233,453L229,458L227,458L226,460L224,460L223,462L221,462L221,463L218,464L217,466L215,466L215,467L213,467L213,468L211,468L211,469L209,469L209,470L207,470L207,471L205,471L205,472L202,472L202,473L197,474L197,475L194,475L194,476L189,476L189,477L185,477L185,478L178,478L178,479L156,479L156,478L150,478L150,477L145,477L145,476L137,475L137,474L135,474L135,473L129,472L129,471L127,471L127,470L125,470L125,469L119,467L118,465L116,465L116,464L114,464L113,462L111,462L110,460L108,460L108,459L107,459L106,457L104,457L101,453L99,453L88,441L86,441L86,439L76,430L76,428L70,423L70,421L69,421L69,420L65,417L65,415L59,410L59,408L55,405L55,403L49,398L49,396L43,391L43,389L40,387L40,385L38,384L38,382L35,380L33,374L31,373L31,371L30,371L30,369L29,369L29,367L28,367L28,365L27,365L27,363L26,363L26,361L25,361L25,359L24,359L24,357L23,357L23,354L22,354L22,352L21,352L21,349L20,349L19,344L18,344L18,341L17,341L17,337L16,337L16,334L15,334L15,330L14,330L14,327L13,327L13,323L12,323L12,318L11,318L11,313L10,313L10,308L9,308L9,302L8,302L7,288L6,288L6,280L5,280L4,258L3,258L3,246L2,246L2,233L1,233L1,221L0,221L0,196L1,196L2,166L3,166L4,148L5,148L5,142L6,142L6,137L7,137L9,122L10,122L10,118L11,118L11,114L12,114L12,111L13,111L13,108L14,108L14,104L15,104L16,98L17,98L17,96L18,96L18,93L19,93L19,91L20,91L20,88L21,88L21,86L22,86L22,83L24,82L24,79L25,79L27,73L29,72L30,68L32,67L33,63L35,62L35,60L38,58L38,56L41,54L41,52L46,48L46,46L47,46L54,38L56,38L60,33L62,33L65,29L67,29L67,28L70,27L71,25L75,24L76,22L78,22L78,21L80,21L80,20L82,20L82,19L84,19L84,18L86,18L86,17L88,17L88,16L90,16L90,15L93,15L93,14L95,14L95,13L97,13L97,12L100,12L100,11L103,11L103,10L106,10L106,9L109,9L109,8L113,8L113,7L117,7L117,6L121,6L121,5L125,5L125,4L145,2L145,1L157,1L157,0Z"/><path fill="#444a54" fill-rule="evenodd" d="M157,0L177,0L177,1L197,2L197,3L203,3L203,4L209,4L209,5L213,5L213,6L218,6L218,7L221,7L221,8L225,8L225,9L228,9L228,10L237,12L237,13L242,14L242,15L244,15L244,16L247,16L248,18L253,19L254,21L256,21L256,22L260,23L261,25L265,26L267,29L269,29L271,32L273,32L276,36L278,36L278,37L290,48L290,50L295,54L295,56L297,57L297,59L300,61L300,63L302,64L303,68L305,69L305,71L306,71L306,73L307,73L307,75L308,75L308,77L309,77L309,79L310,79L310,81L311,81L311,83L312,83L312,85L313,85L313,88L314,88L314,90L315,90L315,92L316,92L316,95L317,95L317,98L318,98L318,101L319,101L319,104L320,104L320,107L321,107L321,110L322,110L322,114L323,114L324,121L325,121L325,126L326,126L326,131L327,131L327,135L328,135L329,147L330,147L331,164L332,164L332,175L333,175L333,191L334,191L334,224L333,224L332,248L331,248L331,261L330,261L330,273L329,273L328,290L327,290L327,296L326,296L326,304L325,304L325,309L324,309L324,314L323,314L323,319L322,319L322,323L321,323L321,328L320,328L320,331L319,331L319,335L318,335L318,338L317,338L317,341L316,341L316,344L315,344L313,353L312,353L312,355L311,355L311,357L310,357L310,360L309,360L309,362L308,362L308,364L307,364L307,366L306,366L304,372L302,373L301,377L299,378L299,380L297,381L297,383L295,384L295,386L291,389L291,391L287,394L287,396L281,401L281,403L276,407L276,409L271,413L271,415L265,420L265,422L260,426L260,428L259,428L259,429L252,435L252,437L250,437L250,439L249,439L243,446L241,446L235,453L233,453L229,458L227,458L226,460L224,460L223,462L221,462L221,463L218,464L217,466L215,466L215,467L213,467L213,468L211,468L211,469L209,469L209,470L207,470L207,471L205,471L205,472L202,472L202,473L197,474L197,475L194,475L194,476L189,476L189,477L185,477L185,478L178,478L178,479L156,479L156,478L150,478L150,477L145,477L145,476L137,475L137,474L135,474L135,473L129,472L129,471L127,471L127,470L125,470L125,469L119,467L118,465L116,465L116,464L114,464L113,462L111,462L110,460L108,460L108,459L107,459L106,457L104,457L101,453L99,453L88,441L86,441L86,439L76,430L76,428L70,423L70,421L69,421L69,420L65,417L65,415L59,410L59,408L55,405L55,403L49,398L49,396L43,391L43,389L40,387L40,385L38,384L38,382L35,380L33,374L31,373L31,371L30,371L30,369L29,369L29,367L28,367L28,365L27,365L27,363L26,363L26,361L25,361L25,359L24,359L24,357L23,357L23,354L22,354L22,352L21,352L21,349L20,349L19,344L18,344L18,341L17,341L17,337L16,337L16,334L15,334L15,330L14,330L14,327L13,327L13,323L12,323L12,318L11,318L11,313L10,313L10,308L9,308L9,302L8,302L7,288L6,288L6,280L5,280L4,258L3,258L3,246L2,246L2,233L1,233L1,221L0,221L0,196L1,196L2,166L3,166L4,148L5,148L5,142L6,142L6,137L7,137L9,122L10,122L10,118L11,118L11,114L12,114L12,111L13,111L13,108L14,108L14,104L15,104L16,98L17,98L17,96L18,96L18,93L19,93L19,91L20,91L20,88L21,88L21,86L22,86L22,83L24,82L24,79L25,79L27,73L29,72L30,68L32,67L33,63L35,62L35,60L38,58L38,56L41,54L41,52L46,48L46,46L47,46L54,38L56,38L60,33L62,33L65,29L67,29L67,28L70,27L71,25L75,24L76,22L78,22L78,21L80,21L80,20L82,20L82,19L84,19L84,18L86,18L86,17L88,17L88,16L90,16L90,15L93,15L93,14L95,14L95,13L97,13L97,12L100,12L100,11L103,11L103,10L106,10L106,9L109,9L109,8L113,8L113,7L117,7L117,6L121,6L121,5L125,5L125,4L145,2L145,1L157,1L157,0ZM114,17L115,17L115,16L113,16L113,17L110,17L110,18L107,18L107,19L100,20L100,21L98,21L98,22L96,22L96,23L93,23L93,24L91,24L91,25L89,25L89,26L87,26L87,27L81,29L80,31L76,32L76,33L73,34L72,36L73,36L73,35L76,35L76,34L78,34L78,33L84,32L84,31L86,31L86,30L88,30L88,29L94,28L94,27L96,27L96,26L98,26L98,25L100,25L100,24L102,24L102,23L104,23L104,22L106,22L106,21L108,21L108,20L110,20L110,19L112,19L112,18L114,18L114,17ZM219,17L222,18L222,19L224,19L224,20L226,20L226,21L228,21L228,22L230,22L230,23L232,23L232,24L234,24L234,25L236,25L236,26L239,26L239,27L241,27L241,28L243,28L243,29L246,29L246,30L248,30L248,31L251,31L251,32L253,32L253,33L256,33L256,34L258,34L258,35L261,35L261,34L259,34L258,32L256,32L255,30L253,30L253,29L251,29L251,28L249,28L249,27L247,27L247,26L245,26L245,25L243,25L243,24L241,24L241,23L239,23L239,22L236,22L236,21L234,21L234,20L231,20L231,19L228,19L228,18L225,18L225,17L222,17L222,16L219,16L219,17ZM214,22L215,22L215,29L216,29L217,46L219,47L219,49L220,49L223,53L225,53L228,57L230,57L232,60L234,60L234,61L237,62L238,64L242,65L243,67L245,67L245,68L247,68L247,69L249,69L249,70L251,70L251,71L253,71L253,72L255,72L255,73L258,73L258,74L260,74L260,75L265,75L265,74L266,74L266,51L265,51L264,41L263,41L262,39L259,39L259,38L257,38L257,37L254,37L254,36L252,36L252,35L249,35L249,34L247,34L247,33L244,33L244,32L242,32L242,31L239,31L239,30L237,30L237,29L235,29L235,28L233,28L233,27L231,27L231,26L228,26L227,24L225,24L225,23L219,21L219,20L216,19L216,18L214,18L214,22ZM164,23L165,23L165,7L163,7L163,8L140,9L140,10L130,11L130,13L124,15L123,26L122,26L122,34L121,34L121,42L127,41L127,40L130,40L130,39L133,39L133,38L136,38L136,37L139,37L139,36L141,36L141,35L144,35L144,34L146,34L146,33L148,33L148,32L150,32L150,31L153,31L153,30L155,30L156,28L162,26L164,23ZM169,23L170,23L171,25L173,25L174,27L176,27L176,28L178,28L178,29L180,29L180,30L182,30L182,31L184,31L184,32L186,32L186,33L188,33L188,34L191,34L191,35L193,35L193,36L195,36L195,37L198,37L198,38L201,38L201,39L204,39L204,40L212,41L212,42L213,42L213,32L212,32L212,24L211,24L210,15L207,14L207,13L204,13L204,11L202,11L202,10L185,9L185,8L171,8L171,7L169,7L169,23ZM119,24L120,24L120,18L118,18L117,20L113,21L112,23L110,23L110,24L108,24L108,25L106,25L106,26L104,26L104,27L101,27L101,28L99,28L99,29L97,29L97,30L95,30L95,31L92,31L92,32L90,32L90,33L87,33L87,34L85,34L85,35L82,35L82,36L77,37L77,38L75,38L75,39L73,39L73,40L70,41L69,53L68,53L68,72L69,72L69,76L70,76L70,75L77,74L77,73L79,73L79,72L81,72L81,71L84,71L84,70L86,70L87,68L93,66L94,64L96,64L97,62L99,62L100,60L102,60L103,58L105,58L108,54L110,54L110,53L116,48L117,43L118,43L119,24ZM67,38L65,38L59,45L56,46L56,48L53,49L53,51L47,56L47,58L43,61L43,63L41,64L41,66L40,66L39,68L41,68L49,59L51,59L51,57L61,48L61,46L64,44L64,42L67,40L67,38ZM266,38L267,38L267,40L271,43L271,45L275,48L275,50L276,50L292,67L294,67L294,65L291,63L291,61L288,59L288,57L282,52L282,50L281,50L276,44L274,44L268,37L266,37L266,38ZM268,49L269,49L269,76L268,76L268,77L271,79L271,81L272,81L280,90L282,90L282,91L283,91L285,94L287,94L289,97L291,97L292,99L294,99L294,100L296,100L296,101L298,101L298,102L300,102L300,103L305,104L305,103L306,103L306,100L307,100L307,98L308,98L308,96L309,96L309,94L308,94L308,91L307,91L307,89L306,89L306,87L305,87L305,85L304,85L304,83L303,83L303,81L302,81L300,75L297,74L297,73L295,73L295,72L293,72L290,68L288,68L288,67L274,54L274,52L273,52L269,47L268,47L268,49ZM65,51L66,51L66,47L65,47L65,48L62,50L62,52L61,52L45,69L43,69L43,70L42,70L41,72L39,72L38,74L35,74L35,75L34,75L34,77L33,77L33,79L32,79L32,81L31,81L31,83L30,83L30,85L29,85L29,87L28,87L28,90L27,90L27,92L26,92L26,95L25,95L26,98L27,98L27,100L28,100L28,102L29,102L30,104L31,104L31,103L34,103L34,102L36,102L36,101L42,99L42,98L45,97L46,95L48,95L48,94L49,94L51,91L53,91L53,90L64,80L64,78L66,77L66,74L65,74L65,51ZM213,64L214,64L214,46L213,46L213,45L205,44L205,43L199,42L199,41L197,41L197,40L194,40L194,39L192,39L192,38L189,38L189,37L187,37L187,36L184,36L184,35L182,35L182,34L176,32L175,30L173,30L173,29L171,29L171,28L169,27L169,71L170,71L173,75L175,75L175,76L178,77L179,79L181,79L181,80L183,80L183,81L186,81L186,82L188,82L188,83L190,83L190,84L193,84L193,85L196,85L196,86L199,86L199,87L203,87L203,88L211,88L211,87L212,87L212,79L213,79L213,64ZM164,71L165,71L165,27L164,27L163,29L161,29L160,31L158,31L158,32L156,32L156,33L154,33L154,34L152,34L152,35L150,35L150,36L148,36L148,37L145,37L145,38L143,38L143,39L140,39L140,40L138,40L138,41L135,41L135,42L132,42L132,43L129,43L129,44L121,45L121,75L122,75L121,77L122,77L122,86L123,86L123,88L131,88L131,87L135,87L135,86L138,86L138,85L147,83L147,82L149,82L149,81L155,79L155,78L158,77L159,75L161,75L164,71ZM264,81L265,81L265,79L256,77L256,76L254,76L254,75L251,75L251,74L247,73L246,71L240,69L239,67L235,66L235,65L232,64L230,61L228,61L227,59L225,59L219,52L217,52L217,70L216,70L215,91L216,91L216,93L217,93L221,98L223,98L226,102L228,102L228,103L231,104L232,106L236,107L237,109L239,109L239,110L241,110L241,111L243,111L243,112L245,112L245,113L247,113L247,114L255,115L255,112L256,112L256,110L257,110L257,107L258,107L258,104L259,104L259,101L260,101L260,98L261,98L261,94L262,94L262,91L263,91L264,81ZM70,85L71,85L72,94L73,94L73,97L74,97L74,100L75,100L75,103L76,103L76,106L77,106L77,109L78,109L80,115L87,114L87,113L89,113L89,112L91,112L91,111L93,111L93,110L99,108L100,106L102,106L102,105L105,104L106,102L108,102L108,101L109,101L110,99L112,99L112,98L118,93L118,91L120,90L120,88L119,88L119,80L118,80L117,52L116,52L114,55L112,55L108,60L106,60L105,62L103,62L102,64L100,64L100,65L97,66L96,68L92,69L91,71L89,71L89,72L87,72L87,73L85,73L85,74L83,74L83,75L81,75L81,76L78,76L78,77L75,77L75,78L70,79L70,85ZM123,94L124,94L125,106L126,106L126,111L127,111L127,116L128,116L128,121L129,121L129,125L130,125L130,130L131,130L132,137L141,137L141,136L145,136L145,135L147,135L147,134L150,134L151,132L153,132L153,131L155,131L156,129L158,129L158,128L165,122L165,76L162,77L160,80L156,81L155,83L151,84L151,85L148,85L148,86L146,86L146,87L143,87L143,88L141,88L141,89L137,89L137,90L134,90L134,91L123,92L123,94ZM210,95L211,95L211,92L201,91L201,90L197,90L197,89L188,87L188,86L186,86L186,85L184,85L184,84L182,84L182,83L176,81L176,80L173,79L171,76L169,76L169,122L170,122L175,128L177,128L179,131L181,131L181,132L183,132L183,133L185,133L185,134L187,134L187,135L189,135L189,136L202,137L203,131L204,131L205,122L206,122L208,107L209,107L210,95ZM308,107L309,107L309,109L310,109L310,112L311,112L311,115L312,115L312,118L313,118L313,122L314,122L314,125L315,125L315,129L316,129L316,133L317,133L317,137L318,137L318,142L319,142L319,147L322,148L322,143L321,143L321,138L320,138L319,127L318,127L318,123L317,123L317,119L316,119L316,115L315,115L315,112L314,112L314,108L313,108L312,102L311,102L311,100L310,100L310,102L309,102L309,104L308,104L308,107ZM31,108L32,108L32,110L33,110L33,112L34,112L36,118L38,119L38,121L40,122L40,124L42,125L42,127L44,128L44,130L46,131L46,133L48,134L48,136L51,138L51,140L52,140L54,143L56,143L57,141L59,141L59,140L68,132L68,130L72,127L72,125L75,123L75,121L76,121L76,119L77,119L77,115L76,115L76,113L75,113L75,110L74,110L74,107L73,107L73,105L72,105L71,98L70,98L70,95L69,95L69,91L68,91L68,87L67,87L67,82L65,82L65,84L64,84L55,94L53,94L51,97L49,97L47,100L43,101L42,103L40,103L40,104L38,104L38,105L32,106L31,108ZM25,109L26,109L26,103L25,103L25,101L23,100L23,103L22,103L22,106L21,106L21,109L20,109L20,112L19,112L19,116L18,116L18,120L17,120L17,124L16,124L16,128L15,128L15,133L14,133L13,144L12,144L12,148L14,148L14,149L15,149L15,146L16,146L17,136L18,136L20,124L21,124L21,121L22,121L22,118L23,118L25,109ZM302,109L303,109L302,106L299,106L299,105L297,105L297,104L294,104L294,103L292,103L291,101L289,101L288,99L286,99L285,97L283,97L278,91L276,91L276,90L270,85L269,82L267,82L266,92L265,92L264,99L263,99L263,103L262,103L262,105L261,105L261,108L260,108L260,111L259,111L259,113L258,113L257,119L258,119L258,121L260,122L260,124L262,125L262,127L270,134L270,136L271,136L272,138L274,138L274,139L280,144L280,143L283,141L283,139L286,137L286,135L288,134L288,132L291,130L291,128L293,127L293,125L294,125L294,123L296,122L298,116L300,115L302,109ZM82,121L83,121L83,123L84,123L84,125L85,125L85,128L86,128L86,130L87,130L89,136L91,137L91,139L92,139L92,141L93,141L95,147L97,148L99,154L100,154L102,157L106,157L106,156L109,156L109,155L112,155L112,154L116,153L117,151L119,151L120,149L122,149L122,148L126,145L126,143L128,142L128,140L129,140L129,136L128,136L128,132L127,132L127,127L126,127L126,123L125,123L125,118L124,118L124,113L123,113L123,108L122,108L121,95L120,95L115,101L113,101L111,104L109,104L107,107L103,108L102,110L98,111L97,113L95,113L95,114L93,114L93,115L91,115L91,116L88,116L88,117L86,117L86,118L83,118L82,121ZM251,122L252,122L252,118L248,118L248,117L246,117L246,116L244,116L244,115L242,115L242,114L240,114L240,113L234,111L233,109L229,108L228,106L226,106L225,104L223,104L219,99L217,99L217,98L215,97L215,95L214,95L214,97L213,97L213,103L212,103L212,109L211,109L211,114L210,114L210,119L209,119L209,124L208,124L208,128L207,128L207,133L206,133L205,140L206,140L206,142L208,143L208,145L209,145L211,148L213,148L215,151L217,151L217,152L219,152L220,154L223,154L223,155L225,155L225,156L233,157L234,154L235,154L235,152L237,151L237,149L238,149L240,143L242,142L242,140L243,140L243,138L244,138L244,136L245,136L245,134L246,134L246,132L247,132L247,130L248,130L248,128L249,128L251,122ZM133,142L134,142L134,146L135,146L135,149L136,149L136,153L137,153L137,156L138,156L138,160L139,160L139,164L140,164L140,167L141,167L143,176L144,176L144,177L153,177L153,176L158,175L158,174L163,170L163,168L165,167L165,127L164,127L161,131L159,131L157,134L155,134L155,135L153,135L153,136L151,136L151,137L149,137L149,138L147,138L147,139L138,140L138,141L133,141L133,142ZM200,143L201,143L201,141L191,140L191,139L188,139L188,138L185,138L185,137L179,135L178,133L176,133L174,130L172,130L172,129L169,127L169,166L170,166L171,170L172,170L175,174L177,174L177,175L179,175L179,176L181,176L181,177L191,177L191,174L192,174L192,171L193,171L193,168L194,168L194,164L195,164L195,161L196,161L196,157L197,157L197,154L198,154L198,150L199,150L200,143ZM57,147L58,147L58,149L64,154L64,156L65,156L83,175L86,175L88,172L90,172L90,171L93,169L93,167L96,165L96,163L98,162L98,157L97,157L97,155L95,154L95,152L94,152L92,146L90,145L90,143L89,143L89,141L88,141L88,139L87,139L87,137L86,137L86,135L85,135L85,133L84,133L84,131L83,131L83,129L82,129L80,123L77,124L77,126L76,126L76,127L73,129L73,131L68,135L68,137L66,137L65,140L62,141L57,147ZM276,148L277,148L277,146L261,131L261,129L258,127L258,125L257,125L256,122L255,122L254,125L253,125L253,128L251,129L251,132L250,132L250,134L249,134L247,140L245,141L245,143L244,143L242,149L240,150L238,156L236,157L236,161L237,161L238,165L239,165L248,175L252,175L252,174L270,157L270,155L276,150L276,148ZM320,154L321,154L322,171L323,171L323,198L326,198L326,180L325,180L324,158L323,158L323,152L321,152L320,154ZM13,159L14,159L14,152L11,152L10,170L9,170L9,183L8,183L8,198L10,198L10,199L12,198L12,167L13,167L13,159ZM104,162L106,163L107,167L109,168L109,170L111,171L111,173L113,174L114,178L116,179L116,181L118,182L118,184L120,185L120,187L123,189L124,192L130,192L130,191L134,190L134,189L137,187L137,185L139,184L139,181L140,181L140,176L139,176L139,172L138,172L138,169L137,169L137,166L136,166L136,162L135,162L135,158L134,158L134,155L133,155L133,152L132,152L131,145L129,145L128,148L127,148L126,150L124,150L122,153L120,153L119,155L117,155L117,156L115,156L115,157L113,157L113,158L104,160L104,162ZM229,162L230,162L230,160L227,160L227,159L224,159L224,158L221,158L221,157L217,156L216,154L214,154L213,152L211,152L205,145L203,145L203,149L202,149L201,156L200,156L200,159L199,159L198,167L197,167L197,170L196,170L196,173L195,173L195,176L194,176L194,181L195,181L197,187L198,187L200,190L204,191L204,192L210,192L210,191L212,190L212,188L214,187L214,185L216,184L216,182L218,181L218,179L220,178L220,176L222,175L222,173L224,172L224,170L226,169L226,167L227,167L227,165L229,164L229,162ZM87,179L90,180L96,187L98,187L103,193L105,193L105,194L106,194L110,199L112,199L115,203L117,203L117,202L120,200L122,194L121,194L121,192L119,191L119,189L117,188L117,186L114,184L114,182L112,181L112,179L110,178L109,174L107,173L107,171L105,170L105,168L103,167L102,164L100,164L99,167L95,170L95,172L92,173L87,179ZM246,179L247,179L247,177L245,177L245,176L236,168L236,166L235,166L234,163L233,163L232,166L230,167L230,169L228,170L228,172L226,173L226,175L224,176L224,178L222,179L222,181L220,182L220,184L218,185L218,187L216,188L216,190L214,191L214,193L212,194L214,200L215,200L217,203L220,203L220,202L221,202L225,197L227,197L232,191L234,191L238,186L240,186L246,179ZM145,183L146,183L147,190L148,190L148,193L149,193L149,196L150,196L150,199L151,199L151,202L152,202L153,207L159,207L159,206L163,205L163,204L165,203L165,173L164,173L161,177L159,177L159,178L157,178L157,179L155,179L155,180L145,181L145,183ZM188,184L189,184L189,181L179,180L179,179L173,177L173,176L170,174L170,172L169,172L169,202L170,202L173,206L175,206L175,207L181,207L181,206L182,206L183,199L184,199L185,193L186,193L186,191L187,191L188,184ZM127,197L130,199L130,201L131,201L132,204L135,206L135,208L138,210L138,212L140,213L141,216L144,216L144,215L146,215L146,214L149,212L150,207L149,207L149,204L148,204L148,201L147,201L147,198L146,198L146,195L145,195L145,192L144,192L143,185L140,187L140,189L139,189L136,193L134,193L134,194L132,194L132,195L127,195L127,197ZM206,197L207,197L207,195L202,195L202,194L200,194L199,192L197,192L197,191L195,190L195,188L194,188L193,185L192,185L192,186L191,186L191,189L190,189L190,192L189,192L189,196L188,196L187,201L186,201L186,205L185,205L185,207L184,207L186,213L187,213L188,215L190,215L190,216L193,216L193,215L195,214L195,212L197,211L197,209L200,207L200,205L203,203L203,201L205,200L206,197ZM33,203L34,203L34,216L35,216L36,228L37,228L39,240L40,240L42,249L43,249L43,251L44,251L44,254L45,254L45,256L46,256L46,258L47,258L49,264L51,265L52,269L53,269L54,272L56,273L56,275L59,277L59,279L60,279L70,290L76,291L76,292L81,292L81,291L89,291L89,290L93,290L93,289L99,288L99,287L101,287L101,286L107,284L107,283L110,282L111,280L113,280L113,279L121,272L121,270L124,268L124,266L125,266L125,264L126,264L126,262L127,262L128,256L129,256L129,250L128,250L127,246L124,244L124,242L123,242L123,241L116,235L116,233L114,233L107,225L105,225L102,221L100,221L98,218L96,218L94,215L92,215L89,211L87,211L85,208L83,208L81,205L79,205L77,202L75,202L72,198L70,198L66,193L64,193L64,192L49,178L49,176L45,173L45,171L42,169L42,167L41,167L40,165L38,166L37,173L36,173L36,178L35,178L35,183L34,183L33,203ZM119,206L120,206L137,224L140,223L140,219L139,219L138,216L135,214L135,212L134,212L133,209L130,207L130,205L129,205L128,202L125,200L125,198L123,199L122,203L121,203L119,206ZM214,207L215,207L215,205L213,204L213,202L212,202L211,199L209,198L209,200L207,201L207,203L204,205L204,207L202,208L202,210L199,212L199,214L198,214L197,217L195,218L195,220L194,220L195,224L197,225L214,207ZM300,213L301,213L301,185L300,185L300,179L299,179L299,174L298,174L297,167L296,167L296,165L294,165L294,167L293,167L292,170L289,172L289,174L284,178L284,180L283,180L274,190L272,190L267,196L265,196L265,197L264,197L261,201L259,201L256,205L254,205L252,208L250,208L248,211L246,211L244,214L242,214L240,217L238,217L236,220L234,220L231,224L229,224L229,225L228,225L223,231L221,231L221,232L215,237L215,239L210,243L210,245L209,245L208,248L206,249L205,253L206,253L206,257L207,257L208,263L210,264L212,270L213,270L223,281L225,281L226,283L228,283L228,284L230,284L230,285L232,285L232,286L234,286L234,287L236,287L236,288L239,288L239,289L242,289L242,290L246,290L246,291L254,291L254,292L263,291L263,290L266,289L266,288L274,281L274,279L278,276L278,274L280,273L280,271L281,271L282,268L284,267L284,265L285,265L285,263L286,263L286,261L287,261L287,259L288,259L288,257L289,257L289,255L290,255L290,253L291,253L291,251L292,251L292,248L293,248L293,245L294,245L294,242L295,242L295,239L296,239L296,236L297,236L297,231L298,231L298,226L299,226L299,221L300,221L300,213ZM155,214L156,214L156,217L157,217L157,220L158,220L158,223L159,223L159,226L160,226L160,229L161,229L161,232L162,232L164,241L166,241L166,239L165,239L165,207L164,207L163,209L161,209L161,210L155,211L155,214ZM178,215L179,215L179,211L178,211L178,210L174,210L174,209L171,209L171,208L169,207L169,241L170,241L171,235L172,235L172,233L173,233L174,226L175,226L175,224L176,224L178,215ZM7,217L8,217L8,221L10,221L10,227L11,227L12,238L13,238L13,244L14,244L14,251L20,251L19,244L18,244L18,240L17,240L17,236L16,236L15,226L14,226L12,202L9,202L9,201L8,201L7,217ZM189,220L190,220L190,219L188,219L186,216L184,216L184,214L182,214L173,242L174,242L175,239L178,237L178,235L181,233L181,231L182,231L183,228L186,226L186,224L189,222L189,220ZM326,220L327,220L327,202L326,202L326,201L323,202L322,217L321,217L321,223L320,223L320,230L319,230L319,235L318,235L317,243L316,243L316,246L315,246L315,251L320,251L322,233L323,233L323,228L324,228L324,222L325,222L326,220ZM145,221L146,221L146,223L148,224L148,226L151,228L151,230L154,232L154,234L157,236L157,238L158,238L158,239L160,240L160,242L161,242L161,239L160,239L159,233L158,233L158,231L157,231L157,227L156,227L156,224L155,224L155,222L154,222L154,219L153,219L152,214L151,214L148,218L146,218L145,221ZM141,229L142,229L148,236L150,236L153,240L155,240L155,239L152,237L152,235L149,233L149,231L146,229L146,227L145,227L144,225L141,226L141,229ZM193,229L194,229L194,227L193,227L192,224L191,224L191,225L189,226L189,228L186,230L186,232L183,234L183,236L182,236L179,240L181,240L184,236L186,236L188,233L190,233L193,229ZM318,256L319,256L319,255L314,255L314,254L313,254L312,259L311,259L311,262L310,262L310,264L309,264L309,267L308,267L308,269L307,269L307,271L306,271L306,273L305,273L305,276L303,277L303,279L302,279L302,281L301,281L299,287L298,287L297,290L295,291L296,294L299,294L299,295L302,295L302,296L305,296L305,297L314,299L314,297L313,297L313,280L314,280L314,271L315,271L315,266L316,266L316,262L317,262L318,256ZM323,257L324,257L323,255L322,255L322,257L321,257L320,264L319,264L319,268L318,268L318,273L317,273L317,282L316,282L317,301L319,300L319,295L320,295L320,287L321,287L321,279L322,279L322,269L323,269L323,257ZM16,258L17,258L17,261L18,261L19,270L20,270L20,277L21,277L21,299L40,293L39,290L37,289L36,285L34,284L34,282L33,282L33,280L32,280L32,278L31,278L31,276L30,276L28,270L27,270L27,267L26,267L26,265L25,265L25,262L24,262L24,260L23,260L22,255L21,255L21,254L20,254L20,255L16,255L16,258ZM157,263L158,263L158,262L156,262L156,263L153,264L152,266L148,267L148,268L143,272L143,274L141,275L141,277L144,279L144,278L149,274L149,272L155,267L155,265L156,265L157,263ZM177,264L178,264L178,265L181,267L181,269L186,273L186,275L187,275L190,279L192,279L193,274L190,272L190,270L187,269L186,267L184,267L183,265L181,265L181,264L178,263L178,262L177,262L177,264ZM160,266L159,266L159,267L156,269L156,271L151,275L151,277L145,282L145,284L146,284L150,289L151,289L152,286L153,286L153,283L154,283L154,281L155,281L155,279L156,279L156,276L157,276L157,274L158,274L158,271L159,271L159,269L160,269L160,266ZM11,267L12,267L12,277L13,277L15,300L17,301L17,297L18,297L18,279L17,279L17,272L16,272L16,267L15,267L15,263L14,263L14,259L13,259L12,255L11,255L11,267ZM174,268L175,268L175,271L176,271L177,276L178,276L178,278L179,278L179,281L180,281L180,283L181,283L181,285L182,285L182,288L184,289L184,288L185,288L188,284L190,284L190,283L185,279L185,277L179,272L179,270L178,270L175,266L174,266L174,268ZM194,283L195,283L195,285L201,290L201,292L210,300L210,302L214,305L214,302L215,302L216,298L215,298L213,295L211,295L211,294L198,282L197,279L195,279L194,283ZM139,284L140,284L140,280L138,279L138,280L135,282L135,284L134,284L126,293L124,293L124,294L118,299L119,302L120,302L120,304L122,304L122,303L128,298L128,296L135,290L135,288L136,288L139,284ZM154,292L161,293L161,294L163,294L163,295L165,296L165,265L164,265L164,268L163,268L163,270L162,270L162,272L161,272L160,278L159,278L159,280L158,280L158,282L157,282L157,285L156,285L156,287L155,287L154,292ZM177,292L180,292L180,289L179,289L179,287L178,287L178,284L177,284L177,282L176,282L176,280L175,280L175,277L174,277L174,275L173,275L173,272L172,272L171,267L170,267L170,264L169,264L169,296L170,296L171,294L174,294L174,293L177,293L177,292ZM148,295L149,295L149,293L148,293L148,291L146,290L146,288L141,287L141,288L136,292L136,294L128,301L128,303L127,303L124,307L131,309L131,310L137,315L137,317L138,317L138,319L139,319L139,317L140,317L140,315L141,315L141,312L142,312L142,310L143,310L143,308L144,308L144,305L145,305L145,303L146,303L146,300L147,300L147,298L148,298L148,295ZM185,295L186,295L186,297L187,297L187,300L188,300L189,305L190,305L190,307L191,307L191,309L192,309L192,312L193,312L193,314L194,314L195,319L197,318L198,314L199,314L202,310L204,310L204,309L210,307L210,306L208,305L208,303L199,295L199,293L198,293L193,287L190,287L190,288L187,290L187,292L186,292L185,295ZM22,303L23,303L24,305L26,305L26,306L39,318L39,320L40,320L40,321L42,322L42,324L44,325L44,327L45,327L45,329L46,329L46,331L47,331L47,333L48,333L49,338L51,337L51,335L52,335L52,333L55,331L55,329L56,329L56,328L60,325L60,323L64,320L62,317L60,317L60,316L52,309L52,307L46,302L46,300L43,298L43,296L36,297L36,298L34,298L34,299L31,299L31,300L28,300L28,301L25,301L25,302L22,302L22,303ZM311,303L312,303L312,302L309,302L309,301L303,300L303,299L301,299L301,298L292,296L291,299L287,302L287,304L271,319L271,321L276,325L276,327L277,327L277,328L280,330L280,332L283,334L284,338L286,337L286,334L287,334L287,332L288,332L288,329L290,328L291,324L292,324L293,321L296,319L296,317L297,317L307,306L309,306L311,303ZM16,306L17,306L19,321L20,321L20,325L21,325L21,329L22,329L22,333L23,333L25,342L26,342L26,344L29,345L29,347L30,347L30,349L31,349L31,351L32,351L32,353L33,353L33,355L34,355L34,357L35,357L35,359L36,359L36,362L37,362L37,364L38,364L38,363L39,363L39,360L40,360L40,358L41,358L42,352L43,352L43,350L44,350L44,348L45,348L45,346L46,346L46,338L45,338L45,335L44,335L44,333L43,333L43,331L42,331L40,325L38,324L38,322L34,319L34,317L33,317L28,311L26,311L23,307L19,306L18,304L17,304L16,306ZM317,307L318,307L318,305L315,305L315,306L313,306L312,308L310,308L306,313L304,313L303,316L297,321L297,323L295,324L295,326L293,327L293,329L292,329L292,331L291,331L291,333L290,333L290,336L289,336L289,339L288,339L288,345L289,345L289,347L290,347L290,349L291,349L291,351L292,351L292,354L293,354L293,357L294,357L294,360L295,360L295,363L296,363L296,364L297,364L297,362L298,362L298,360L299,360L299,358L300,358L300,355L301,355L302,351L304,350L304,347L306,346L306,344L309,343L309,340L310,340L310,337L311,337L311,333L312,333L312,330L313,330L313,326L314,326L314,322L315,322L317,307ZM216,308L217,308L217,310L223,315L223,317L228,321L228,323L232,326L232,328L235,330L235,332L236,332L238,335L240,335L240,333L241,333L249,324L251,324L252,322L258,320L258,319L256,319L256,318L252,318L252,317L249,317L249,316L247,316L247,315L241,314L241,313L239,313L239,312L237,312L237,311L235,311L235,310L229,308L228,306L226,306L225,304L223,304L223,303L220,302L220,301L218,302L216,308ZM117,309L118,309L118,306L117,306L117,303L116,303L116,301L115,301L115,302L113,302L112,304L110,304L109,306L105,307L104,309L102,309L102,310L100,310L100,311L98,311L98,312L96,312L96,313L93,313L93,314L91,314L91,315L88,315L88,316L79,318L79,319L77,319L77,320L80,321L80,322L82,322L83,324L85,324L87,327L89,327L89,328L92,330L92,332L93,332L95,335L97,335L97,333L100,331L100,329L103,327L103,325L108,321L108,319L113,315L113,313L114,313L117,309ZM142,322L152,323L152,324L158,326L159,328L161,328L164,332L166,332L166,331L165,331L165,300L164,300L163,298L161,298L161,297L159,297L159,296L152,296L152,297L151,297L151,300L150,300L150,302L149,302L149,304L148,304L148,307L147,307L147,309L146,309L146,312L145,312L145,314L144,314L144,317L143,317L143,319L142,319L142,322ZM186,322L192,322L192,319L191,319L191,316L190,316L190,314L189,314L189,312L188,312L187,306L186,306L186,304L185,304L184,299L183,299L182,296L175,296L175,297L173,297L172,299L169,300L169,332L170,332L173,328L175,328L176,326L178,326L178,325L180,325L180,324L182,324L182,323L186,323L186,322ZM135,327L136,327L136,321L135,321L134,317L132,316L132,314L130,314L130,313L127,312L127,311L120,311L120,312L113,318L113,320L109,323L109,325L105,328L105,330L102,332L102,334L99,336L99,338L108,340L108,341L110,341L110,342L116,344L117,346L119,346L119,347L124,351L124,353L126,353L127,348L128,348L128,345L129,345L130,340L131,340L131,338L132,338L133,332L134,332L134,330L135,330L135,327ZM198,327L199,327L200,332L201,332L201,334L202,334L202,337L203,337L203,340L204,340L204,342L205,342L205,345L206,345L206,348L207,348L207,350L208,350L208,353L210,353L211,350L212,350L214,347L216,347L218,344L220,344L220,343L222,343L222,342L224,342L224,341L226,341L226,340L236,338L236,337L233,335L233,333L230,331L230,329L226,326L226,324L222,321L222,319L217,315L217,313L216,313L215,311L207,311L207,312L205,312L205,313L200,317L200,319L199,319L198,327ZM92,340L93,340L92,336L90,335L90,333L89,333L85,328L83,328L81,325L79,325L79,324L77,324L77,323L69,322L69,321L68,321L68,322L66,322L66,323L61,327L61,329L57,332L57,334L55,335L55,337L54,337L53,340L52,340L52,343L55,343L55,344L59,345L60,347L62,347L62,348L72,357L72,359L74,360L74,362L76,363L76,365L77,365L77,367L78,367L79,364L80,364L80,362L81,362L81,359L82,359L83,355L85,354L85,352L86,352L87,348L89,347L90,343L92,342L92,340ZM241,340L243,341L244,345L246,346L247,350L249,351L249,353L250,353L250,355L251,355L251,357L252,357L252,359L253,359L254,364L255,364L256,367L257,367L257,365L259,364L260,360L263,358L263,356L264,356L271,348L273,348L273,347L276,346L277,344L283,342L282,339L280,338L280,336L278,335L278,333L275,331L275,329L274,329L268,322L266,322L266,321L265,321L265,322L257,323L257,324L255,324L254,326L252,326L250,329L248,329L248,330L245,332L245,334L242,336L241,340ZM129,356L134,356L134,357L142,358L142,359L144,359L144,360L146,360L146,361L149,361L150,363L154,364L155,366L159,367L162,371L165,372L165,338L164,338L164,336L163,336L157,329L155,329L155,328L153,328L153,327L151,327L151,326L140,325L140,326L139,326L139,329L138,329L138,332L137,332L137,334L136,334L136,337L135,337L135,339L134,339L134,342L133,342L133,344L132,344L132,347L131,347L129,356ZM200,356L206,356L206,355L205,355L203,346L202,346L202,344L201,344L201,341L200,341L200,339L199,339L199,336L198,336L198,334L197,334L197,331L196,331L196,328L195,328L194,325L188,325L188,326L181,327L181,328L179,328L178,330L176,330L176,331L170,336L170,338L169,338L169,373L170,373L174,368L176,368L177,366L179,366L180,364L182,364L182,363L184,363L184,362L186,362L186,361L188,361L188,360L190,360L190,359L193,359L193,358L196,358L196,357L200,357L200,356ZM122,362L123,362L123,356L122,356L122,354L121,354L116,348L112,347L112,346L109,345L109,344L103,343L103,342L95,342L95,344L94,344L93,347L91,348L90,352L88,353L88,355L87,355L87,357L86,357L86,359L85,359L85,361L84,361L84,363L83,363L83,365L82,365L82,368L81,368L81,370L80,370L80,374L86,375L86,376L88,376L88,377L90,377L90,378L96,380L97,382L99,382L100,384L102,384L104,387L106,387L112,394L114,394L114,389L115,389L116,382L117,382L117,379L118,379L118,375L119,375L119,372L120,372L120,369L121,369L121,366L122,366L122,362ZM211,362L212,362L212,365L213,365L213,368L214,368L214,371L215,371L215,374L216,374L216,378L217,378L217,381L218,381L218,385L219,385L220,393L221,393L221,394L222,394L227,388L229,388L231,385L233,385L235,382L239,381L240,379L242,379L242,378L244,378L244,377L246,377L246,376L248,376L248,375L251,375L251,374L254,374L254,373L255,373L255,372L254,372L254,369L253,369L253,367L252,367L252,365L251,365L251,363L250,363L250,360L248,359L248,357L247,357L245,351L243,350L243,348L242,348L242,346L240,345L239,342L231,342L231,343L228,343L228,344L226,344L226,345L220,347L219,349L217,349L217,350L213,353L213,355L211,356L211,362ZM293,369L294,369L294,368L293,368L293,365L292,365L292,362L291,362L291,359L290,359L290,356L289,356L289,353L288,353L286,347L285,347L285,346L281,346L281,347L277,348L276,350L274,350L274,351L264,360L264,362L262,363L262,365L260,366L259,371L258,371L258,374L259,374L259,377L260,377L260,380L261,380L261,384L262,384L262,388L263,388L264,397L265,397L265,395L268,393L268,391L273,387L273,385L274,385L279,379L281,379L285,374L287,374L288,372L290,372L290,371L293,370L293,369ZM41,370L45,371L45,372L48,373L50,376L52,376L52,377L63,387L63,389L67,392L67,394L68,394L69,396L71,395L71,389L72,389L72,385L73,385L73,381L74,381L74,378L75,378L76,371L75,371L75,368L74,368L73,364L71,363L71,361L70,361L60,350L58,350L57,348L55,348L55,347L53,347L53,346L49,346L49,347L48,347L47,352L46,352L46,354L45,354L45,356L44,356L42,365L41,365L41,370ZM293,374L291,374L291,375L288,376L286,379L284,379L284,380L274,389L274,391L270,394L270,396L267,398L267,400L266,400L266,402L265,402L265,408L267,408L267,407L270,405L270,403L274,400L274,398L275,398L275,397L280,393L280,391L285,387L285,385L286,385L286,384L288,383L288,381L291,379L291,377L293,376L293,374ZM41,375L42,375L42,377L44,378L44,380L47,382L47,384L50,386L50,388L56,393L56,395L61,399L61,401L62,401L62,402L66,405L66,407L69,409L69,402L68,402L67,398L65,397L65,395L62,393L62,391L61,391L49,378L47,378L47,377L46,377L45,375L43,375L43,374L41,374L41,375ZM116,398L126,399L126,400L130,400L130,401L133,401L133,402L142,404L142,405L144,405L144,406L146,406L146,407L149,407L149,408L155,410L156,412L160,413L160,414L163,415L164,417L166,417L166,416L165,416L165,377L164,377L160,372L158,372L156,369L154,369L153,367L151,367L151,366L149,366L149,365L147,365L147,364L145,364L145,363L143,363L143,362L140,362L140,361L137,361L137,360L131,360L131,359L128,359L128,360L126,361L126,364L125,364L125,367L124,367L124,370L123,370L123,373L122,373L122,377L121,377L121,380L120,380L120,383L119,383L119,387L118,387L118,391L117,391L116,398ZM214,398L218,398L218,394L217,394L215,382L214,382L214,379L213,379L213,376L212,376L212,372L211,372L211,369L210,369L208,360L206,360L206,359L194,361L194,362L191,362L191,363L189,363L189,364L183,366L182,368L180,368L179,370L177,370L175,373L173,373L173,374L170,376L170,378L169,378L169,417L172,416L173,414L175,414L176,412L180,411L181,409L184,409L184,408L186,408L186,407L188,407L188,406L190,406L190,405L193,405L193,404L195,404L195,403L198,403L198,402L201,402L201,401L204,401L204,400L214,399L214,398ZM222,402L223,402L224,414L225,414L225,424L226,424L225,427L227,427L237,416L239,416L239,415L240,415L241,413L243,413L245,410L247,410L248,408L254,406L255,404L261,403L261,395L260,395L260,390L259,390L259,385L258,385L257,378L256,378L256,377L250,378L250,379L245,380L244,382L240,383L240,384L237,385L236,387L234,387L232,390L230,390L230,391L224,396L224,398L222,399L222,402ZM73,403L79,404L79,405L81,405L82,407L86,408L87,410L89,410L90,412L92,412L94,415L96,415L100,420L102,420L102,421L107,425L107,427L109,427L109,416L110,416L110,408L111,408L112,399L111,399L111,397L110,397L104,390L102,390L100,387L98,387L97,385L95,385L94,383L90,382L90,381L87,380L87,379L84,379L84,378L82,378L82,377L78,377L77,382L76,382L76,386L75,386L74,396L73,396L73,403ZM71,413L72,413L72,414L75,416L75,418L82,424L82,426L83,426L103,447L105,447L108,451L111,452L111,450L110,450L110,445L109,445L109,434L108,434L108,432L106,431L106,429L105,429L98,421L96,421L96,420L95,420L93,417L91,417L89,414L87,414L86,412L84,412L83,410L81,410L81,409L79,409L79,408L77,408L77,407L75,407L75,406L72,406L72,411L71,411L71,413ZM262,413L263,413L263,411L262,411L262,406L259,406L259,407L257,407L257,408L251,410L251,411L248,412L247,414L245,414L242,418L240,418L236,423L234,423L234,424L230,427L230,429L226,432L224,452L225,452L228,448L230,448L230,447L255,423L255,421L260,417L260,415L261,415L262,413ZM112,432L113,432L113,433L121,433L121,434L125,434L125,435L129,435L129,436L135,437L135,438L137,438L137,439L140,439L140,440L142,440L142,441L145,441L145,442L147,442L147,443L149,443L149,444L151,444L151,445L157,447L158,449L160,449L161,451L163,451L164,453L166,453L166,452L165,452L165,422L164,422L160,417L158,417L157,415L155,415L155,414L153,414L153,413L151,413L151,412L149,412L149,411L147,411L147,410L145,410L145,409L143,409L143,408L140,408L140,407L138,407L138,406L135,406L135,405L132,405L132,404L128,404L128,403L124,403L124,402L117,402L117,401L115,401L114,411L113,411L113,419L112,419L112,432ZM214,433L222,433L222,417L221,417L221,409L220,409L220,403L219,403L219,401L217,401L217,402L210,402L210,403L202,404L202,405L199,405L199,406L197,406L197,407L191,408L191,409L189,409L189,410L187,410L187,411L185,411L185,412L179,414L178,416L174,417L174,418L169,422L169,453L170,453L171,451L173,451L174,449L178,448L179,446L181,446L181,445L187,443L187,442L190,442L190,441L192,441L192,440L194,440L194,439L197,439L197,438L200,438L200,437L202,437L202,436L206,436L206,435L209,435L209,434L214,434L214,433ZM112,442L113,442L114,455L117,456L118,458L122,459L123,461L125,461L125,462L127,462L127,463L129,463L129,464L131,464L131,465L137,466L137,467L139,467L139,468L143,468L143,469L147,469L147,470L152,470L152,471L165,472L165,457L164,457L163,455L161,455L159,452L153,450L152,448L150,448L150,447L148,447L148,446L145,446L145,445L143,445L143,444L141,444L141,443L139,443L139,442L136,442L136,441L133,441L133,440L130,440L130,439L127,439L127,438L117,437L117,436L112,436L112,442ZM221,444L222,444L222,436L217,436L217,437L207,438L207,439L198,441L198,442L196,442L196,443L193,443L193,444L191,444L191,445L189,445L189,446L187,446L187,447L184,447L183,449L177,451L177,452L174,453L172,456L170,456L170,458L169,458L169,472L175,472L175,471L182,471L182,470L192,469L192,468L195,468L195,467L197,467L197,466L203,465L203,464L205,464L205,463L207,463L207,462L213,460L214,458L216,458L217,456L220,455L221,444Z"/><path fill="#ffd83f" fill-rule="evenodd" d="M39,165L42,167L42,169L45,171L45,173L49,176L49,178L50,178L64,193L66,193L66,194L67,194L70,198L72,198L75,202L77,202L79,205L81,205L83,208L85,208L87,211L89,211L92,215L94,215L96,218L98,218L100,221L102,221L105,225L107,225L114,233L116,233L116,235L117,235L117,236L124,242L124,244L127,246L127,248L128,248L128,250L129,250L129,256L128,256L128,259L127,259L127,262L126,262L124,268L121,270L121,272L120,272L113,280L111,280L111,281L108,282L107,284L105,284L105,285L103,285L103,286L101,286L101,287L99,287L99,288L96,288L96,289L93,289L93,290L89,290L89,291L81,291L81,292L72,291L72,290L70,290L70,289L59,279L59,277L56,275L56,273L55,273L54,270L52,269L51,265L49,264L49,262L48,262L48,260L47,260L47,258L46,258L46,256L45,256L45,254L44,254L44,251L43,251L43,249L42,249L40,240L39,240L39,236L38,236L38,232L37,232L37,228L36,228L35,216L34,216L34,203L33,203L34,183L35,183L36,173L37,173L37,169L38,169L38,166L39,166L39,165ZM294,165L296,165L296,167L297,167L298,174L299,174L299,179L300,179L300,185L301,185L301,213L300,213L300,221L299,221L297,236L296,236L296,239L295,239L295,242L294,242L292,251L291,251L291,253L290,253L290,255L289,255L289,257L288,257L288,259L287,259L287,261L286,261L284,267L282,268L282,270L280,271L280,273L278,274L278,276L274,279L274,281L273,281L266,289L264,289L263,291L258,291L258,292L246,291L246,290L242,290L242,289L236,288L236,287L234,287L234,286L232,286L232,285L226,283L225,281L223,281L223,280L212,270L210,264L208,263L207,257L206,257L206,253L205,253L206,249L208,248L208,246L210,245L210,243L215,239L215,237L216,237L221,231L223,231L229,224L231,224L234,220L236,220L238,217L240,217L242,214L244,214L246,211L248,211L250,208L252,208L254,205L256,205L259,201L261,201L261,200L262,200L265,196L267,196L272,190L274,190L274,189L284,180L284,178L289,174L289,172L292,170L292,168L294,167L294,165Z"/></svg>
